<svg xmlns="http://www.w3.org/2000/svg" baseProfile="basic" viewBox="0 0 64 64">
  <ellipse cx="33.025" cy="61" opacity=".3" rx="23" ry="3"/>
  <path fill="#37d0ee" d="M51.002,51.005h-36c-3.314,0-6-2.686-6-6v-25c0-3.314,2.686-6,6-6h36c3.314,0,6,2.686,6,6v25	C57.002,48.319,54.316,51.005,51.002,51.005z"/>
  <path fill="#fff" d="M24,19.005c2.761,0,5-2.238,5-5c0,0,0,0,0,0H15.002c-3.314,0-6,2.686-6,6V37 c0,0,0,0,0,0c2.761,0,5-2.238,5-5V20.005c0-0.552,0.449-1,1-1H24z" opacity=".3"/>
  <path d="M57.002,45.005V28c-2.761,0-5,2.238-5,5v11.058c0,1.075-0.872,1.947-1.947,1.947H36 c-2.761,0-5,2.239-5,5v0h20.002C54.316,51.005,57.002,48.319,57.002,45.005z" opacity=".15"/>
  <path fill="none" stroke="#fff" stroke-linecap="round" stroke-linejoin="round" stroke-miterlimit="10" stroke-width="3" d="M12.502,25.5v-5.495c0-1.379,1.122-2.5,2.5-2.5H17.5"/>
  <path fill="#9c34c2" d="M39.627,33.164L30,46h20c1.648,0,2.589-1.882,1.6-3.2l-7.227-9.636	C43.187,31.582,40.813,31.582,39.627,33.164z"/>
  <path fill="#ffa1ac" d="M24.915,28.127L15.447,42.33C14.401,43.899,15.525,46,17.411,46H41L29.085,28.127	C28.093,26.639,25.907,26.639,24.915,28.127z"/>
  <circle cx="39.5" cy="24.5" r="3.5" fill="#fff"/>
</svg>
